<svg xmlns="http://www.w3.org/2000/svg" width="1200" height="760" viewBox="0 0 1200 760">
<rect width="1200" height="760" fill="#f5f7fa"/>
<rect x="30" y="25" width="1140" height="710" rx="20" fill="#ffffff" stroke="#dfe4ea" stroke-width="2"/>
<rect x="60" y="55" width="44" height="44" rx="10" fill="#0b63ce"/>
<text x="75" y="87" fill="#fff" font-size="27" font-weight="700" font-family="Arial,sans-serif">P</text>
<text x="120" y="87" fill="#17202a" font-size="26" font-weight="700" font-family="Arial,'PingFang SC','Microsoft YaHei',sans-serif">Polymarket</text>
<text x="1080" y="85" text-anchor="end" fill="#6b7280" font-size="17" font-family="Arial,'PingFang SC',sans-serif">经济 · 利率</text>
<line x1="60" y1="120" x2="1140" y2="120" stroke="#e5e7eb" stroke-width="2"/>
<text x="60" y="190" fill="#111827" font-size="39" font-weight="700" font-family="Arial,'PingFang SC','Microsoft YaHei',sans-serif">2026年美联储降息多少次？</text>
<text x="60" y="232" fill="#374151" font-size="19" font-weight="700" font-family="Arial,'PingFang SC',sans-serif">$42,206,279 交易量</text>
<g font-family="Arial,'PingFang SC','Microsoft YaHei',sans-serif">
<text x="70" y="316" fill="#1f2937" font-size="22" font-weight="700">0次（0基点）</text><text x="1080" y="316" text-anchor="end" fill="#111827" font-size="25" font-weight="700">80.3%</text>
<rect x="70" y="340" width="1010" height="30" rx="15" fill="#edf1f5"/><rect x="70" y="340" width="811" height="30" rx="15" fill="#2563eb"/>
<text x="70" y="418" fill="#1f2937" font-size="22" font-weight="700">1次（25基点）</text><text x="1080" y="418" text-anchor="end" fill="#111827" font-size="25" font-weight="700">14%</text>
<rect x="70" y="442" width="1010" height="30" rx="15" fill="#edf1f5"/><rect x="70" y="442" width="141" height="30" rx="15" fill="#f59e0b"/>
<text x="70" y="520" fill="#1f2937" font-size="22" font-weight="700">2次（50基点）</text><text x="1080" y="520" text-anchor="end" fill="#111827" font-size="25" font-weight="700">3.9%</text>
<rect x="70" y="544" width="1010" height="30" rx="15" fill="#edf1f5"/><rect x="70" y="544" width="39" height="30" rx="15" fill="#10b981"/>
<text x="70" y="622" fill="#1f2937" font-size="22" font-weight="700">3次（75基点）</text><text x="1080" y="622" text-anchor="end" fill="#111827" font-size="25" font-weight="700">1.8%</text>
<rect x="70" y="646" width="1010" height="30" rx="15" fill="#edf1f5"/><rect x="70" y="646" width="18" height="30" rx="15" fill="#ef4444"/>
<text x="60" y="712" fill="#7a8491" font-size="15">页面快照 · 数据截至 2026-07-15 · 概率及交易量会持续变化</text>
</g></svg>