<svg xmlns="http://www.w3.org/2000/svg" width="1200" height="760" viewBox="0 0 1200 760">
<rect width="1200" height="760" fill="#f5f7fa"/>
<rect x="30" y="25" width="1140" height="710" rx="20" fill="#ffffff" stroke="#dfe4ea" stroke-width="2"/>
<rect x="60" y="55" width="44" height="44" rx="10" fill="#0b63ce"/>
<text x="75" y="87" fill="#fff" font-size="27" font-weight="700" font-family="Arial,sans-serif">P</text>
<text x="120" y="87" fill="#17202a" font-size="26" font-weight="700" font-family="Arial,'PingFang SC','Microsoft YaHei',sans-serif">Polymarket</text>
<text x="1080" y="85" text-anchor="end" fill="#6b7280" font-size="17" font-family="Arial,'PingFang SC',sans-serif">金融 · FOMC</text>
<line x1="60" y1="120" x2="1140" y2="120" stroke="#e5e7eb" stroke-width="2"/>
<text x="60" y="190" fill="#111827" font-size="42" font-weight="700" font-family="Arial,sans-serif">Fed rate hike by...?</text>
<text x="60" y="230" fill="#667085" font-size="22" font-family="Arial,'PingFang SC','Microsoft YaHei',sans-serif">美联储最早将在何次会议加息？</text>
<text x="60" y="272" fill="#374151" font-size="19" font-weight="700" font-family="Arial,'PingFang SC',sans-serif">$1,196,716 交易量</text>
<g font-family="Arial,'PingFang SC','Microsoft YaHei',sans-serif">
<rect x="60" y="310" width="1080" height="112" rx="14" fill="#fbfcfe" stroke="#e5e7eb" stroke-width="2"/>
<text x="84" y="357" fill="#1f2937" font-size="23" font-weight="700">7月会议</text><text x="84" y="393" fill="#8a94a3" font-size="15">$471,185 交易量</text>
<text x="900" y="365" text-anchor="end" fill="#111827" font-size="31" font-weight="700">6%</text>
<rect x="950" y="331" width="142" height="37" rx="8" fill="#eaf8f0"/><text x="1021" y="355" text-anchor="middle" fill="#198754" font-size="14" font-weight="700">买入 是 6¢</text>
<rect x="950" y="376" width="142" height="37" rx="8" fill="#fff0f0"/><text x="1021" y="400" text-anchor="middle" fill="#c43d4b" font-size="14" font-weight="700">买入 否 94¢</text>
<rect x="60" y="438" width="1080" height="112" rx="14" fill="#fbfcfe" stroke="#e5e7eb" stroke-width="2"/>
<text x="84" y="485" fill="#1f2937" font-size="23" font-weight="700">9月会议</text><text x="84" y="521" fill="#8a94a3" font-size="15">$304,264 交易量</text>
<text x="900" y="493" text-anchor="end" fill="#111827" font-size="31" font-weight="700">43%</text>
<rect x="950" y="459" width="142" height="37" rx="8" fill="#eaf8f0"/><text x="1021" y="483" text-anchor="middle" fill="#198754" font-size="14" font-weight="700">买入 是 43¢</text>
<rect x="950" y="504" width="142" height="37" rx="8" fill="#fff0f0"/><text x="1021" y="528" text-anchor="middle" fill="#c43d4b" font-size="14" font-weight="700">买入 否 57¢</text>
<rect x="60" y="566" width="1080" height="112" rx="14" fill="#fbfcfe" stroke="#e5e7eb" stroke-width="2"/>
<text x="84" y="613" fill="#1f2937" font-size="23" font-weight="700">10月会议</text><text x="84" y="649" fill="#8a94a3" font-size="15">$244,174 交易量</text>
<text x="900" y="621" text-anchor="end" fill="#111827" font-size="31" font-weight="700">48%</text>
<rect x="950" y="587" width="142" height="37" rx="8" fill="#eaf8f0"/><text x="1021" y="611" text-anchor="middle" fill="#198754" font-size="14" font-weight="700">买入 是 48¢</text>
<rect x="950" y="632" width="142" height="37" rx="8" fill="#fff0f0"/><text x="1021" y="656" text-anchor="middle" fill="#c43d4b" font-size="14" font-weight="700">买入 否 52¢</text>
<text x="60" y="712" fill="#7a8491" font-size="15">页面快照 · 数据截至 2026-07-15 · 概率及交易量会持续变化</text>
</g></svg>